<?xml version="1.0" encoding="UTF-8" standalone="no"?>
<!DOCTYPE svg PUBLIC "-//W3C//DTD SVG 1.1//EN" "http://www.w3.org/Graphics/SVG/1.1/DTD/svg11.dtd">
<svg xmlns="http://www.w3.org/2000/svg" version="1.1" viewBox="0.00 0.00 66.00 50.00">
<path fill="#6900ff" d="
  M 31.54 13.32
  C 29.13 12.82 20.29 8.48 27.52 6.23
  Q 40.11 2.32 52.50 6.74
  C 54.85 7.58 55.77 10.30 53.10 11.39
  Q 42.69 15.66 31.54 13.32
  Z"
/>
<path fill="#6900ff" d="
  M 45.12 18.15
  L 42.25 16.87
  Q 41.75 16.64 42.03 16.17
  L 42.19 15.91
  Q 42.26 15.79 42.40 15.80
  Q 48.64 16.18 54.27 13.54
  A 0.41 0.40 -21.2 0 1 54.83 13.78
  C 56.43 18.74 50.88 19.89 47.65 21.13
  Q 47.03 21.37 46.74 20.76
  L 45.86 18.88
  Q 45.62 18.38 45.12 18.15
  Z"
/>
<path fill="#6900ff" d="
  M 25.00 28.75
  C 20.65 27.82 16.56 27.27 15.18 23.09
  Q 15.01 22.58 15.28 22.12
  C 19.62 14.84 33.60 15.70 40.31 17.97
  C 43.30 18.99 47.48 22.87 43.10 25.71
  Q 35.10 30.90 25.00 28.75
  Z"
/>
<path fill="#6900ff" d="
  M 47.79 22.74
  C 49.88 22.90 52.52 21.99 54.34 20.91
  A 0.58 0.58 0.0 0 1 55.21 21.48
  L 54.82 24.31
  Q 54.76 24.80 54.36 25.11
  Q 51.65 27.25 48.15 27.74
  Q 47.60 27.82 47.57 27.26
  L 47.33 23.19
  Q 47.30 22.70 47.79 22.74
  Z"
/>
<path fill="#6900ff" d="
  M 39.56 30.06
  Q 42.25 29.48 44.31 27.97
  Q 44.99 27.47 44.92 28.31
  L 44.67 31.68
  Q 44.63 32.24 44.20 32.59
  C 37.28 38.30 24.73 37.75 17.27 34.22
  Q 13.87 32.61 15.27 28.45
  Q 15.40 28.08 15.76 28.23
  Q 27.06 32.79 39.56 30.06
  Z"
/>
<path fill="#6900ff" d="
  M 43.93 36.47
  L 44.04 36.14
  A 0.41 0.41 0.0 0 1 44.84 36.24
  C 45.33 45.45 28.42 44.72 23.13 43.42
  C 18.61 42.30 15.16 41.75 14.85 36.76
  Q 14.81 36.17 15.38 36.03
  Q 15.94 35.90 16.25 36.36
  Q 16.50 36.74 16.94 36.87
  C 25.49 39.48 34.51 39.09 43.35 37.00
  Q 43.79 36.90 43.93 36.47
  Z"
/>
</svg>
